KRSPY-WL-Min.ufo
<glyph name="zero" format="2">
  <advance width="3876.76976976977"/>
  <unicode hex="0030"/>
  <outline>
    <contour>
      <point x="85.81081081081082" y="0.0" type="line" identifier="4KX3b3mGg4"/>
      <point x="3790.9589589589586" y="0.0" type="line" identifier="V2j8wYP0nr"/>
      <point x="3790.9589589589586" y="1600.0" type="line" identifier="NaxGoenf3y"/>
      <point x="85.81081081081082" y="1600.0" type="line" identifier="rx6fJSLiri"/>
    </contour>
    <contour>
      <point x="91.8858858858859" y="7.72972972972973" type="line"/>
      <point x="91.8858858858859" y="1592.2702702702704" type="line"/>
      <point x="3784.8838838838838" y="1592.2702702702704" type="line"/>
      <point x="3784.8838838838838" y="7.72972972972973" type="line"/>
    </contour>
  </outline>
</glyph>
<glyph name="one" format="2">
  <advance width="3882.8848848848847"/>
  <unicode hex="0031"/>
  <outline>
    <contour>
      <point x="89.0" y="0.0" type="line"/>
      <point x="3797.069069069069" y="0.0" type="line" identifier="CURJAw79Zl"/>
      <point x="3797.069069069069" y="7.72972972972973" type="line" identifier="0DUCJo8xIi"/>
      <point x="1946.5695695695697" y="7.72972972972973" type="line" identifier="5nmxQXofSG"/>
      <point x="1946.5695695695697" y="1600.0" type="line" identifier="4rjIeWbSbx"/>
      <point x="86.0" y="1600.0" type="line"/>
      <point x="86.0" y="1592.2702702702704" type="line"/>
      <point x="1939.4994994994995" y="1592.2702702702704" type="line"/>
      <point x="1939.4994994994995" y="7.72972972972973" type="line"/>
      <point x="89.0" y="7.72972972972973" type="line"/>
    </contour>
  </outline>
</glyph>
<glyph name="two" format="2">
  <advance width="3874.7697697697695"/>
  <unicode hex="0032"/>
  <outline>
    <contour>
      <point x="85.8108108108108" y="0.0" type="line"/>
      <point x="3788.958958958959" y="0.0" type="line" identifier="pzdvPTirLJ"/>
      <point x="3788.958958958959" y="7.369369369369382" type="line" identifier="91SxUS0iwG"/>
      <point x="3782.8848848848847" y="7.369369369369382" type="line" identifier="fP7EN0pUcl"/>
      <point x="3782.8848848848847" y="7.36936936936937" type="line" identifier="eb458Bdvng"/>
      <point x="95.3893893893894" y="7.36936936936937" type="line"/>
      <point x="95.3893893893894" y="425.5855855855856" type="line" identifier="9fjc25rkUx"/>
      <point x="3784.958958958959" y="1081.9639639639638" type="line" identifier="yyb1NCCI5w"/>
      <point x="3784.958958958959" y="1600.0" type="line" identifier="5FogYRSgkk"/>
      <point x="88.8108108108108" y="1600.0" type="line" identifier="svlFvrau4c"/>
      <point x="88.8108108108108" y="1591.936936936937" type="line" identifier="LQ9fBsTy9K"/>
      <point x="94.88488488488488" y="1591.936936936937" type="line" identifier="jS6EyIAKtm"/>
      <point x="94.88488488488488" y="1592.6486486486488" type="line"/>
      <point x="3774.3803803803803" y="1592.6486486486488" type="line" identifier="N6CMAjhNlU"/>
      <point x="3774.3803803803803" y="1086.118118118118" type="line" identifier="yK1d5IcluK"/>
      <point x="85.8108108108108" y="430.4684684684685" type="line" identifier="teVKnpBcVb"/>
    </contour>
  </outline>
</glyph>
<glyph name="three" format="2">
  <advance width="3874.76976976977"/>
  <unicode hex="0033"/>
  <outline>
    <contour>
      <point x="85.8108108108108" y="0.0" type="line" identifier="O9abUc1nmN"/>
      <point x="3788.958958958959" y="0.0" type="line" identifier="kMJYMTfXCq"/>
      <point x="3788.958958958959" y="801.8828828828829" type="line" identifier="su2XmdS8e8"/>
      <point x="2531.5725725725724" y="801.8828828828829" type="line" identifier="JQaOzDQqlF"/>
      <point x="2531.5725725725724" y="801.7207207207207" type="line"/>
      <point x="3780.958958958959" y="1126.6216216216217" type="line" identifier="S91TzLL02W"/>
      <point x="3780.958958958959" y="1600.0" type="line" identifier="xg8x2Ki40p"/>
      <point x="87.93593593593594" y="1600.0" type="line" identifier="pE1XSRiy68"/>
      <point x="87.93593593593594" y="1592.6306306306305" type="line" identifier="5lNstGRcSF"/>
      <point x="94.00500500500502" y="1592.6306306306305" type="line" identifier="AcE5xKDZfE"/>
      <point x="94.00500500500502" y="1592.6306306306305" type="line" identifier="7ogBYufWpl"/>
      <point x="3772.6826826826823" y="1592.6306306306305" type="line" identifier="RHLvSX2Jv6"/>
      <point x="3772.6826826826823" y="1128.06006006006" type="line" identifier="YUjTrmoWd9"/>
      <point x="2526.009009009009" y="804.5495495495495" type="line"/>
      <point x="2526.009009009009" y="802.5675675675676" type="line" identifier="iic1IBkDqp"/>
      <point x="822.1761761761762" y="802.5675675675676" type="line" identifier="lRLJEhXMlO"/>
      <point x="822.1761761761762" y="797.4234234234234" type="line" identifier="8aKgEELrVU"/>
      <point x="3781.8838838838838" y="797.4234234234234" type="line" identifier="Dm8zjmbhNr"/>
      <point x="3781.8838838838838" y="7.36936936936937" type="line" identifier="xv9CFHiFgB"/>
      <point x="90.8848848848849" y="7.36936936936937" type="line" identifier="YajKQV3MHP"/>
      <point x="90.8848848848849" y="7.369369369369375" type="line" identifier="36SchVkwze"/>
      <point x="85.8108108108108" y="7.369369369369375" type="line" identifier="tVui9PiOjA"/>
    </contour>
  </outline>
</glyph>
<glyph name="four" format="2">
  <advance width="3889.7697697697695"/>
  <unicode hex="0034"/>
  <outline>
    <contour>
      <point x="3367.883883883884" y="0.0" type="line"/>
      <point x="3374.9539539539537" y="0.0" type="line"/>
      <point x="3374.9539539539537" y="795.7207207207207" type="line"/>
      <point x="3802.9589589589586" y="795.7207207207207" type="line"/>
      <point x="3802.9589589589586" y="803.0180180180181" type="line"/>
      <point x="3374.9539539539537" y="803.0180180180181" type="line"/>
      <point x="3374.9539539539537" y="1600.0" type="line"/>
      <point x="3367.883883883884" y="1600.0" type="line"/>
      <point x="3367.883883883884" y="803.0180180180181" type="line"/>
      <point x="92.88588588588588" y="803.0180180180181" type="line"/>
      <point x="92.88588588588588" y="1121.5675675675677" type="line"/>
      <point x="595.8858858858858" y="1680.0" type="line"/>
      <point x="587.8158158158158" y="1680.0" type="line"/>
      <point x="86.81581581581581" y="1121.5675675675677" type="line"/>
      <point x="86.81581581581581" y="795.7207207207207" type="line"/>
      <point x="3367.883883883884" y="795.7207207207207" type="line"/>
    </contour>
  </outline>
</glyph>
<glyph name="six" format="2">
  <advance width="3874.76976976977"/>
  <unicode hex="0036"/>
  <outline>
    <contour>
      <point x="85.8108108108108" y="0.0" type="line" identifier="uiw6aBUf4P"/>
      <point x="3788.958958958959" y="0.0" type="line" identifier="jtYkxiUX6G"/>
      <point x="3788.958958958959" y="802.4324324324324" type="line" identifier="2G5L37c87I"/>
      <point x="91.88588588588588" y="802.4324324324324" type="line"/>
      <point x="91.88588588588588" y="1243.5405405405404" type="line"/>
      <point x="590.03003003003" y="1592.4504504504505" type="line"/>
      <point x="3782.8848848848847" y="1592.4504504504505" type="line"/>
      <point x="3782.8848848848847" y="1593.5315315315315" type="line"/>
      <point x="3787.958958958959" y="1593.5315315315315" type="line" identifier="Wuidbv6mUe"/>
      <point x="3787.958958958959" y="1600.0" type="line" identifier="oGvEEuxnYv"/>
      <point x="586.8158158158158" y="1600.0" type="line" identifier="xR3pEHbMJx"/>
      <point x="85.8108108108108" y="1247.5675675675675" type="line" identifier="KnMArb0tv8"/>
    </contour>
    <contour>
      <point x="3781.883883883884" y="797.2612612612613" type="line"/>
      <point x="3781.883883883884" y="7.1891891891891895" type="line"/>
      <point x="91.88588588588588" y="7.1891891891891895" type="line"/>
      <point x="91.88588588588588" y="797.2612612612613" type="line"/>
    </contour>
  </outline>
</glyph>
<glyph name="seven" format="2">
  <advance width="3873.76976976977"/>
  <unicode hex="0037"/>
  <outline>
    <contour>
      <point x="1933.98998998999" y="0.0" type="line"/>
      <point x="1943.0710710710712" y="0.0" type="line" identifier="PiPrv7Kcoy"/>
      <point x="3787.958958958959" y="1295.9639639639638" type="line" identifier="PkvwNC9Tx1"/>
      <point x="3787.958958958959" y="1600.0" type="line" identifier="tgqM27bPOm"/>
      <point x="85.8108108108108" y="1600.0" type="line" identifier="36ml4xRICt"/>
      <point x="85.8108108108108" y="1588.8468468468468" type="line" identifier="aaDZsh5Mah"/>
      <point x="90.8848848848849" y="1588.8468468468468" type="line"/>
      <point x="90.8848848848849" y="1592.2702702702704" type="line"/>
      <point x="3779.881881881882" y="1592.2702702702704" type="line"/>
      <point x="3779.881881881882" y="1296.954954954955" type="line"/>
    </contour>
  </outline>
</glyph>
<glyph name="eight" format="2">
  <advance width="3887.76976976977"/>
  <unicode hex="0038"/>
  <outline>
    <contour>
      <point x="3412.892892892893" y="797.1981981981982" type="line"/>
      <point x="3794.883883883884" y="512.2522522522522" type="line"/>
      <point x="3794.883883883884" y="7.135135135135135" type="line"/>
      <point x="92.88588588588588" y="7.135135135135135" type="line"/>
      <point x="92.88588588588588" y="512.09009009009" type="line"/>
      <point x="475.8858858858859" y="797.1891891891892" type="line"/>
    </contour>
    <contour>
      <point x="3419.9589589589586" y="799.0" type="line"/>
      <point x="3419.9589589589586" y="801.0" type="line"/>
      <point x="3798.953953953954" y="1070.3783783783783" type="line"/>
      <point x="3798.953953953954" y="1600.0" type="line"/>
      <point x="89.8108108108108" y="1600.0" type="line"/>
      <point x="89.8108108108108" y="1070.3783783783783" type="line"/>
      <point x="467.8158158158158" y="801.0" type="line"/>
      <point x="467.8158158158158" y="799.0" type="line"/>
      <point x="86.81081081081082" y="514.7567567567568" type="line"/>
      <point x="86.81081081081082" y="0.0" type="line"/>
      <point x="3801.953953953954" y="0.0" type="line"/>
      <point x="3801.953953953954" y="514.7567567567568" type="line"/>
    </contour>
    <contour>
      <point x="475.8858858858859" y="802.981981981982" type="line"/>
      <point x="95.89489489489489" y="1073.1531531531532" type="line"/>
      <point x="95.88588588588588" y="1593.045045045045" type="line"/>
      <point x="3791.8838838838838" y="1593.045045045045" type="line"/>
      <point x="3791.874874874875" y="1073.1531531531532" type="line"/>
      <point x="3412.883883883884" y="802.990990990991" type="line"/>
    </contour>
  </outline>
</glyph>
<glyph name="nine" format="2">
  <advance width="3874.76976976977"/>
  <unicode hex="0039"/>
  <outline>
    <contour>
      <point x="3788.958958958959" y="1600.0" type="line" identifier="uiw6aBUf4P"/>
      <point x="85.8108108108108" y="1600.0" type="line" identifier="jtYkxiUX6G"/>
      <point x="85.8108108108108" y="797.2702702702703" type="line" identifier="2G5L37c87I"/>
      <point x="3781.883883883884" y="797.2702702702703" type="line"/>
      <point x="3781.883883883884" y="7.2792792792792795" type="line"/>
      <point x="91.88488488488488" y="7.2792792792792795" type="line"/>
      <point x="91.88488488488488" y="6.468468468468457" type="line"/>
      <point x="86.8108108108108" y="6.468468468468457" type="line" identifier="Wuidbv6mUe"/>
      <point x="86.8108108108108" y="0.0" type="line" identifier="oGvEEuxnYv"/>
      <point x="3788.958958958959" y="0.0" type="line" identifier="xR3pEHbMJx"/>
    </contour>
    <contour>
      <point x="91.88588588588588" y="802.5855855855856" type="line"/>
      <point x="91.88588588588588" y="1592.5405405405406" type="line"/>
      <point x="3781.883883883884" y="1592.5405405405406" type="line"/>
      <point x="3781.883883883884" y="802.5855855855856" type="line"/>
    </contour>
  </outline>
</glyph>
<glyph name="C" format="2">
  <advance width="3717.012012012012"/>
  <unicode hex="0043"/>
  <outline>
    <contour>
      <point x="85.8108108108108" y="0.0" type="line" identifier="7lPhzTnk2Z"/>
      <point x="3629.674674674675" y="0.0" type="line" identifier="qJVLZGnkwh"/>
      <point x="3629.674674674675" y="7.8198198198198305" type="line" identifier="nDnDHzAMXL"/>
      <point x="3622.6046046046044" y="7.8198198198198305" type="line" identifier="QX1V08aTu0"/>
      <point x="3622.6046046046044" y="7.81981981981982" type="line" identifier="Y750RHTvDj"/>
      <point x="91.8858858858859" y="7.81981981981982" type="line" identifier="L2LsGnXiZ2"/>
      <point x="91.8948948948949" y="1100.6306306306305" type="line" identifier="sUWsr03vF4"/>
      <point x="597.4264264264264" y="1592.1801801801803" type="line" identifier="dbOUe6OhxL"/>
      <point x="3622.6086086086084" y="1592.1801801801803" type="line" identifier="5BjRbcud80"/>
      <point x="3622.5995995995995" y="1590.963963963964" type="line" identifier="fNVDqwQo2o"/>
      <point x="3628.674674674675" y="1590.963963963964" type="line" identifier="wLqQQx7QVN"/>
      <point x="3628.674674674675" y="1600.0" type="line" identifier="9eJelv8BOw"/>
      <point x="593.8108108108108" y="1600.0" type="line" identifier="lfZev3ICaC"/>
      <point x="85.8108108108108" y="1105.0" type="line" identifier="V1EWIdPahq"/>
    </contour>
  </outline>
</glyph>
<glyph name="D" format="2">
  <advance width="3877.7697697697695"/>
  <unicode hex="0044"/>
  <outline>
    <contour>
      <point x="85.8108108108108" y="0.0" type="line" identifier="gh4oopoKIn"/>
      <point x="3791.958958958959" y="0.0" type="line" identifier="wIy2omw5Da"/>
      <point x="3791.958958958959" y="1154.7027027027027" type="line" identifier="ydeACnPZN4"/>
      <point x="3273.922922922923" y="1600.0" type="line" identifier="IF8msvcgce"/>
      <point x="85.8108108108108" y="1600.0" type="line" identifier="hTYdJwlqIh"/>
    </contour>
    <contour>
      <point x="91.88588588588588" y="1592.2702702702704" type="line" identifier="YShvMHvurg"/>
      <point x="3270.5685685685685" y="1592.2702702702704" type="line" identifier="DiLdvAK6bW"/>
      <point x="3785.8838838838838" y="1150.036036036036" type="line" identifier="5OFemp6E2Y"/>
      <point x="3785.8838838838838" y="7.72972972972973" type="line" identifier="4w8cXO1HlF"/>
      <point x="91.88588588588588" y="7.72972972972973" type="line" identifier="OGdfzPVlic"/>
    </contour>
  </outline>
</glyph>
<glyph name="J" format="2">
  <advance width="3498.7697697697695"/>
  <unicode hex="004A"/>
  <outline>
    <contour>
      <point x="256.16016016016016" y="0.0" type="line" identifier="jiO9eX9U07"/>
      <point x="3420.958958958959" y="0.0" type="line" identifier="wgpFs1yguc"/>
      <point x="3420.958958958959" y="1600.0" type="line" identifier="d5Di3vNzni"/>
      <point x="80.28128128128128" y="1600.0" type="line" identifier="TbrXnCyMEi"/>
      <point x="80.28128128128128" y="1591.7297297297298" type="line" identifier="AdYfGKx8QJ"/>
      <point x="3413.8838838838838" y="1591.7297297297298" type="line" identifier="46RrD1WET2"/>
      <point x="3413.8838838838838" y="7.36936936936937" type="line" identifier="zFXsE8BUYG"/>
      <point x="261.64464464464464" y="7.36936936936937" type="line" identifier="NQmE31PUns"/>
      <point x="82.41141141141141" y="469.6666666666667" type="line" identifier="qiXxY6YhCq"/>
      <point x="76.32732732732734" y="469.6666666666667" type="line" identifier="7exNZv1XSc"/>
    </contour>
  </outline>
</glyph>
<glyph name="M" format="2">
  <advance width="3943.76976976977"/>
  <unicode hex="004D"/>
  <outline>
    <contour>
      <point x="1959.8848848848847" y="80.0" type="line" identifier="0Dn4Xpf57M"/>
      <point x="119.88588588588587" y="1591.009009009009" type="line"/>
      <point x="93.88588588588588" y="1591.009009009009" type="line"/>
      <point x="93.88588588588588" y="0.0" type="line"/>
      <point x="86.81581581581582" y="0.0" type="line"/>
      <point x="86.81581581581582" y="1600.0" type="line"/>
      <point x="119.88588588588588" y="1600.0" type="line"/>
      <point x="1960.884884884885" y="88.990990990991" type="line"/>
      <point x="1982.884884884885" y="88.990990990991" type="line" identifier="9aKZPM0HPh"/>
      <point x="3823.8838838838838" y="1600.0" type="line"/>
      <point x="3856.958958958959" y="1600.0" type="line"/>
      <point x="3856.958958958959" y="0.0" type="line"/>
      <point x="3849.8838838838838" y="0.0" type="line"/>
      <point x="3849.8838838838838" y="1591.009009009009" type="line"/>
      <point x="3824.8838838838838" y="1591.009009009009" type="line"/>
      <point x="1983.884884884885" y="80.0" type="line" identifier="spdoeeCFft"/>
    </contour>
  </outline>
</glyph>
<glyph name="O" format="2">
  <advance width="3876.76976976977"/>
  <unicode hex="004F"/>
  <outline>
    <contour>
      <point x="3830.4254254254256" y="487.02702702702703" type="line" identifier="ob8US3C311"/>
      <point x="3830.4254254254256" y="1600.018018018018" type="line" identifier="c9brEFyXXA"/>
      <point x="543.3763763763764" y="1600.0" type="line" identifier="a4Ql951bxG"/>
      <point x="46.371371371371374" y="1105.0" type="line" identifier="kbL68Qh2zr"/>
      <point x="46.371371371371374" y="0.0" type="line" identifier="U6WibAQAUl"/>
      <point x="3334.411411411412" y="0.018018018018018018" type="line" identifier="dfgNHTgBfR"/>
    </contour>
    <contour>
      <point x="3824.3413413413414" y="492.84684684684686" type="line" identifier="SnrsQD5TLy"/>
      <point x="3329.9989989989986" y="8.27027027027027" type="line" identifier="jjd5iRDXWT"/>
      <point x="52.44644644644645" y="8.27027027027027" type="line" identifier="YbQKHpAtYn"/>
      <point x="52.44644644644645" y="1099.1801801801803" type="line" identifier="vdfGLkskOQ"/>
      <point x="548.068068068068" y="1591.7567567567569" type="line" identifier="qXlVxK5ShE"/>
      <point x="3824.3413413413414" y="1591.7567567567569" type="line" identifier="g70r2r6DwY"/>
    </contour>
  </outline>
</glyph>
<glyph name="Q" format="2">
  <advance width="3876.76976976977"/>
  <unicode hex="0051"/>
  <outline>
    <contour>
      <point x="3830.3983983983985" y="1600.018018018018" type="line" identifier="c9brEFyXXA"/>
      <point x="543.3763763763764" y="1600.018018018018" type="line" identifier="a4Ql951bxG"/>
      <point x="46.371371371371374" y="1244.7387387387387" type="line" identifier="kbL68Qh2zr"/>
      <point x="46.371371371371374" y="0.018018018018018018" type="line" identifier="U6WibAQAUl"/>
      <point x="3830.3983983983985" y="0.018018018018018018" type="line" identifier="dfgNHTgBfR"/>
    </contour>
    <contour>
      <point x="3824.323323323323" y="7.7477477477477485" type="line" identifier="jjd5iRDXWT"/>
      <point x="52.44644644644645" y="7.7477477477477485" type="line" identifier="YbQKHpAtYn"/>
      <point x="52.44644644644645" y="1240.7387387387387" type="line" identifier="vdfGLkskOQ"/>
      <point x="548.1981981981983" y="1592.2882882882884" type="line" identifier="qXlVxK5ShE"/>
      <point x="3824.323323323323" y="1592.2882882882884" type="line" identifier="g70r2r6DwY"/>
    </contour>
    <contour>
      <point x="1938.76976976977" y="-216.23423423423424" type="line"/>
      <point x="1945.3443443443443" y="-216.23423423423424" type="line"/>
      <point x="1945.3443443443443" y="2.0" type="line"/>
      <point x="1938.76976976977" y="2.0" type="line"/>
    </contour>
  </outline>
</glyph>
<glyph name="R" format="2">
  <advance width="3875.76976976977"/>
  <unicode hex="0052"/>
  <outline>
    <contour>
      <point x="52.46446446446446" y="801.8468468468468" type="line"/>
      <point x="52.446446446446444" y="1592.2702702702704" type="line"/>
      <point x="3819.323323323323" y="1592.2702702702704" type="line"/>
      <point x="3819.3323323323325" y="1071.4374374374374" type="line"/>
      <point x="3452.3323323323325" y="801.8468468468468" type="line"/>
    </contour>
    <contour>
      <point x="3829.393393393393" y="0.0" type="line"/>
      <point x="3829.402402402402" y="521.0450450450451" type="line"/>
      <point x="3459.4164164164163" y="798.6076076076076" type="line"/>
      <point x="3459.4164164164163" y="800.6076076076076" type="line"/>
      <point x="3826.4024024024025" y="1069.1891891891892" type="line"/>
      <point x="3826.393393393393" y="1600.0" type="line"/>
      <point x="46.371371371371374" y="1600.0" type="line"/>
      <point x="46.371371371371374" y="0.0" type="line"/>
      <point x="52.45545545545545" y="0.0" type="line"/>
      <point x="52.45545545545545" y="795.054054054054" type="line"/>
      <point x="3453.3273273273276" y="795.054054054054" type="line"/>
      <point x="3822.323323323323" y="517.4144144144144" type="line"/>
      <point x="3822.323323323323" y="0.0" type="line"/>
    </contour>
  </outline>
</glyph>
<glyph name="S" format="2">
  <advance width="3866.767767767768"/>
  <unicode hex="0053"/>
  <outline>
    <contour>
      <point x="47.37637637637638" y="0.0" type="line" identifier="09VlJ0BjUX"/>
      <point x="3820.396396396396" y="0.0" type="line" identifier="EagWihqFM8"/>
      <point x="3820.396396396396" y="823.4374374374374" type="line" identifier="KfNuQA7eZe"/>
      <point x="76.40040040040041" y="823.4374374374374" type="line" identifier="At364YZFEy"/>
      <point x="76.40040040040041" y="1592.6306306306305" type="line" identifier="BcuLfvaQKC"/>
      <point x="3815.322322322322" y="1592.6306306306305" type="line" identifier="3ZUkG35meB"/>
      <point x="3815.322322322322" y="1593.5315315315315" type="line" identifier="DTOJhFIl15"/>
      <point x="3820.331331331331" y="1593.5315315315315" type="line" identifier="9KDcrfQ5Ui"/>
      <point x="3820.331331331331" y="1600.0" type="line" identifier="SaF9ojRFrW"/>
      <point x="70.31131131131133" y="1600.0" type="line" identifier="F4sQEYelA8"/>
      <point x="70.31131131131133" y="819.122122122122" type="line" identifier="3sQ8t8BZ6b"/>
      <point x="3814.321321321321" y="819.1221221221222" type="line" identifier="yiV6OCBLHg"/>
      <point x="3814.321321321321" y="7.36936936936937" type="line" identifier="9kdl9SYsn8"/>
      <point x="53.44544544544545" y="7.36936936936937" type="line" identifier="yZDWuX8LLe"/>
      <point x="53.44544544544545" y="6.468468468468457" type="line" identifier="jYb9001DTm"/>
      <point x="47.37637637637638" y="6.468468468468457" type="line" identifier="ho4DrS0rdW"/>
    </contour>
  </outline>
</glyph>
<glyph name="U" format="2">
  <advance width="3874.76976976977"/>
  <unicode hex="0055"/>
  <outline>
    <contour>
      <point x="3781.8838838838838" y="1600.0" type="line" smooth="yes"/>
      <point x="3781.8838838838838" y="7.72972972972973" type="line"/>
      <point x="597.867867867868" y="7.72972972972973" type="line" smooth="yes"/>
      <point x="91.88588588588588" y="501.56756756756755" type="line" smooth="yes"/>
      <point x="91.88588588588588" y="1600.0" type="line"/>
      <point x="85.81081081081082" y="1600.0" type="line" smooth="yes"/>
      <point x="85.81081081081082" y="498.0" type="line" smooth="yes"/>
      <point x="593.8108108108107" y="0.0" type="line" smooth="yes"/>
      <point x="3788.958958958959" y="0.0" type="line" smooth="yes"/>
      <point x="3788.958958958959" y="1600.0" type="line" smooth="yes"/>
    </contour>
  </outline>
</glyph>
<glyph name="V" format="2">
  <advance width="3874.76976976977"/>
  <unicode hex="0056"/>
  <outline>
    <contour>
      <point x="91.88588588588588" y="1600.0" type="line" smooth="yes"/>
      <point x="91.88588588588588" y="7.72972972972973" type="line"/>
      <point x="3275.3393393393394" y="7.72972972972973" type="line" smooth="yes"/>
      <point x="3781.8838838838838" y="502.3023023023023" type="line" smooth="yes"/>
      <point x="3781.8838838838838" y="1600.0" type="line"/>
      <point x="3788.958958958959" y="1600.0" type="line" smooth="yes"/>
      <point x="3788.958958958959" y="498.0" type="line" smooth="yes"/>
      <point x="3280.9589589589586" y="0.0" type="line" smooth="yes"/>
      <point x="85.81081081081082" y="0.0" type="line" smooth="yes"/>
      <point x="85.81081081081082" y="1600.0" type="line" smooth="yes"/>
    </contour>
  </outline>
</glyph>
<glyph name="W" format="2">
  <advance width="5483.654654654655"/>
  <unicode hex="0057"/>
  <outline>
    <contour>
      <point x="5353.321321321321" y="1600.0" type="line" smooth="yes" identifier="12Pyby1xY2"/>
      <point x="5353.321321321321" y="7.72972972972973" type="line" identifier="iqeTRv7HXg"/>
      <point x="2955.873873873874" y="7.72972972972973" type="line" identifier="GlWB6PG54Z"/>
      <point x="2744.868868868869" y="307.6936936936937" type="line"/>
      <point x="2744.868868868869" y="313.7987987987988" type="line"/>
      <point x="2744.8508508508507" y="1600.0" type="line"/>
      <point x="2737.798798798799" y="1594.018018018018" type="line" smooth="yes"/>
      <point x="2737.7987987987985" y="303.72972972972974" type="line"/>
      <point x="2569.7987987987985" y="7.72972972972973" type="line" identifier="Ljn2lpvpG8"/>
      <point x="636.1611611611612" y="7.72972972972973" type="line" smooth="yes" identifier="oee4nqI8Wl"/>
      <point x="130.32332332332334" y="501.4594594594595" type="line" smooth="yes" identifier="WWvGwSpq0g"/>
      <point x="130.32332332332334" y="1600.0" type="line" identifier="JfSFAkWGZC"/>
      <point x="123.25325325325325" y="1600.0" type="line" smooth="yes" identifier="RTOJW56qXy"/>
      <point x="123.25325325325325" y="498.0" type="line" smooth="yes" identifier="7g7f8Wu7K4"/>
      <point x="631.2532532532533" y="0.0" type="line" smooth="yes" identifier="R4lklfJsHA"/>
      <point x="2575.163163163163" y="0.0" type="line" smooth="yes" identifier="Pkl7cZ37MU"/>
      <point x="2742.322322322322" y="298.0" type="line"/>
      <point x="2743.322322322322" y="298.0" type="line"/>
      <point x="2953.3223223223226" y="0.0" type="line" smooth="yes" identifier="rCeQLyjlsN"/>
      <point x="5360.396396396397" y="0.0" type="line" smooth="yes" identifier="ZqTZqAY3uY"/>
      <point x="5360.396396396397" y="1600.0" type="line" smooth="yes" identifier="5LJg4ajoG6"/>
    </contour>
  </outline>
</glyph>
<glyph name="X" format="2">
  <advance width="3887.76976976977"/>
  <unicode hex="0058"/>
  <outline>
    <contour>
      <point x="3412.856856856857" y="796.0810810810812" type="line"/>
      <point x="3794.856856856857" y="510.51351351351354" type="line"/>
      <point x="3794.856856856857" y="0.0" type="line"/>
      <point x="3801.926926926927" y="0.0" type="line"/>
      <point x="3801.926926926927" y="514.4324324324324" type="line"/>
      <point x="3419.9409409409404" y="799.0" type="line"/>
      <point x="3419.9409409409404" y="801.0" type="line"/>
      <point x="3798.926926926927" y="1070.5675675675675" type="line"/>
      <point x="3798.926926926927" y="1600.0" type="line"/>
      <point x="3791.8568568568567" y="1600.0" type="line"/>
      <point x="3791.8568568568567" y="1074.4864864864865" type="line"/>
      <point x="3412.856856856857" y="803.9189189189188" type="line"/>
      <point x="475.85885885885887" y="803.9189189189188" type="line"/>
      <point x="95.86786786786787" y="1074.4864864864865" type="line"/>
      <point x="95.86786786786787" y="1600.0" type="line"/>
      <point x="89.78378378378379" y="1600.0" type="line"/>
      <point x="89.78378378378379" y="1070.5675675675675" type="line"/>
      <point x="467.7977977977978" y="801.0" type="line"/>
      <point x="467.7977977977978" y="799.0" type="line"/>
      <point x="86.78378378378379" y="514.4324324324324" type="line"/>
      <point x="86.78378378378379" y="0.0" type="line"/>
      <point x="92.86786786786787" y="0.0" type="line"/>
      <point x="92.86786786786787" y="510.51351351351354" type="line"/>
      <point x="475.85885885885887" y="796.0810810810812" type="line"/>
    </contour>
  </outline>
</glyph>
<glyph name="Y" format="2">
  <advance width="3873.76976976977"/>
  <unicode hex="0059"/>
  <outline>
    <contour>
      <point x="1934.3473473473473" y="-1.971971971971972" type="line" identifier="XKjckKJ7m9"/>
      <point x="1941.4174174174175" y="0.0" type="line" identifier="WihjL321cU"/>
      <point x="1941.4174174174175" y="683.6146146146147" type="line" identifier="rvzWMWl6O1"/>
      <point x="3787.958958958959" y="941.0540540540541" type="line" identifier="YbKEFhFR3q"/>
      <point x="3787.958958958959" y="1631.5515515515517" type="line" identifier="wnC8PudY2b"/>
      <point x="3781.874874874875" y="1631.5515515515517" type="line" identifier="spI4xe8t4f"/>
      <point x="3781.874874874875" y="946.8698698698698" type="line" identifier="Jw55i2s2Mm"/>
      <point x="1939.7157157157155" y="690.7417417417417" type="line" identifier="9ncbEH2hEb"/>
      <point x="1936.049049049049" y="690.7417417417417" type="line" identifier="u7HFbTQwMo"/>
      <point x="91.89489489489489" y="946.8698698698698" type="line" identifier="oy8ifCCtGL"/>
      <point x="91.89489489489489" y="1631.5515515515517" type="line" identifier="ah5yat5gKV"/>
      <point x="85.8108108108108" y="1631.5515515515517" type="line" identifier="fJXhpKV79E"/>
      <point x="85.8108108108108" y="941.0540540540541" type="line" identifier="k3vH9oxqcN"/>
      <point x="1934.3473473473473" y="683.6146146146147" type="line" identifier="3Kveia3O9h"/>
    </contour>
  </outline>
</glyph>
<glyph name="Z" format="2">
  <advance width="3875.7697697697695"/>
  <unicode hex="005A"/>
  <outline>
    <contour>
      <point x="85.8108108108108" y="0.0" type="line"/>
      <point x="3790.953953953954" y="0.0" type="line" identifier="pzdvPTirLJ"/>
      <point x="3790.953953953954" y="363.9099099099099" type="line" identifier="91SxUS0iwG"/>
      <point x="3784.8848848848847" y="363.9099099099099" type="line"/>
      <point x="3784.8848848848847" y="7.72972972972973" type="line"/>
      <point x="95.3893893893894" y="7.72972972972973" type="line"/>
      <point x="95.3893893893894" y="426.998998998999" type="line"/>
      <point x="3784.958958958959" y="1383.3613613613613" type="line" identifier="yyb1NCCI5w"/>
      <point x="3784.958958958959" y="1600.0" type="line" identifier="5FogYRSgkk"/>
      <point x="88.8108108108108" y="1600.0" type="line" identifier="svlFvrau4c"/>
      <point x="88.8108108108108" y="1238.1701701701702" type="line" identifier="LQ9fBsTy9K"/>
      <point x="94.88488488488488" y="1238.1701701701702" type="line"/>
      <point x="94.88488488488488" y="1592.2702702702704" type="line"/>
      <point x="3774.14014014014" y="1592.2702702702704" type="line"/>
      <point x="3774.14014014014" y="1384.912912912913" type="line"/>
      <point x="85.8108108108108" y="428.7107107107107" type="line" identifier="teVKnpBcVb"/>
    </contour>
  </outline>
</glyph>
